<svg id="Layer_1" data-name="Layer 1" xmlns="http://www.w3.org/2000/svg" viewBox="0 0 16 16"><title>logo</title><g id="Layer_1-2" data-name="Layer 1-2"><path d="M9.27,3.54a20.14,20.14,0,0,0-1,3.31.43.43,0,0,0,0,.4c.12.12.33,0,.48,0a6.39,6.39,0,0,0,1.36-1,32.49,32.49,0,0,0,2.74-3.52.78.78,0,0,1,.47-.33c.2,0,.4.21.29.37-.42.59-.82,1.18-1.23,1.78L10.16,7.9c-.36.52-.71,1-1,1.58-.51.81-1,1.64-1.44,2.48a.59.59,0,0,0-.1.44c0,.14.67-.19.84-.34l2.9-2.57c.26-.23.64-.47.92-.28a.82.82,0,0,1,.21.25l1.14,1.86a.82.82,0,0,1,.15.36.56.56,0,0,1-.43.51,1.89,1.89,0,0,1-.71,0,11.14,11.14,0,0,0-2.45,0,2.38,2.38,0,0,0-.59.12,2.52,2.52,0,0,0-.77.53c-1,.92-2,1.87-3,2.86-.18.18-.42.39-.67.33a.53.53,0,0,1-.35-.56,1.43,1.43,0,0,1,.27-.65L8.53,9c.11-.19.21-.45.05-.6s-.32-.07-.49-.06a.82.82,0,0,1-.83-.8A.9.9,0,0,1,7.4,7c.11-.14-.1-.35-.28-.31a.64.64,0,0,0-.39.35L4.13,11c-.15.22-.34.48-.62.48A.58.58,0,0,1,3,11a1.6,1.6,0,0,1,.14-.8A85.05,85.05,0,0,1,7.2,2.07a.64.64,0,0,0,.1-.42c0-.15-.2-.27-.32-.18L3.74,3.69a1.73,1.73,0,0,1-.84.38.59.59,0,0,1-.65-.51.53.53,0,0,1,.39-.48,1,1,0,0,1,.65,0c.24.08.48-.09.68-.24.57-.42,3.51-2.46,4-2.73.19-.12.49-.2.61,0s0,.32,0,.46C7.42,2.82,5.2,7.76,5.63,7.38s.76-1,1.12-1.48a10.78,10.78,0,0,1,1-1.05,5,5,0,0,0,.9-1.4,1,1,0,0,1,.23-.38.32.32,0,0,1,.41,0c.12.13.06.33,0,.5"/></g></svg>